<?xml version="1.0" standalone="no"?><!DOCTYPE svg PUBLIC "-//W3C//DTD SVG 1.1//EN" "http://www.w3.org/Graphics/SVG/1.1/DTD/svg11.dtd"><svg t="1527184183899" class="icon" style="" viewBox="0 0 1024 1024" version="1.1" xmlns="http://www.w3.org/2000/svg" p-id="805" xmlns:xlink="http://www.w3.org/1999/xlink" width="200" height="200"><defs><style type="text/css"></style></defs><path d="M804.792753 0.623858H191.540651c-36.183746 0-70.745461 14.348727-96.323626 39.926891s-39.926892 60.264652-39.926892 96.323627v749.502619c0 75.237237 61.013281 136.250518 136.250518 136.250518h613.252102c75.237237 0 136.250518-61.013281 136.250518-136.250518V136.874376c0.124772-75.237237-60.88851-136.250518-136.250518-136.250518z m68.25003 885.877909c0 37.681004-30.444255 68.125259-68.125259 68.125259H191.540651c-37.681004 0-68.125259-30.444255-68.125259-68.125259V136.874376c0-37.681004 30.569026-68.125259 68.125259-68.125259h613.252102c37.681004 0 68.125259 30.569026 68.125259 68.125259v749.627391z m0 0" fill="#3FAAE2" p-id="806"></path><path d="M721.694909 273.249665H415.131244c-18.840502 0-34.062629 15.222127-34.062629 34.062629 0 18.840502 15.222127 34.062629 34.062629 34.06263h306.688437c18.840502 0 34.062629-15.222127 34.062629-34.06263-0.124772-18.840502-15.346899-34.062629-34.187401-34.062629z m0 204.375777H415.131244c-18.840502 0-34.062629 15.222127-34.062629 34.062629 0 18.840502 15.222127 34.062629 34.062629 34.06263h306.688437c18.840502 0 34.062629-15.222127 34.062629-34.06263-0.124772-18.840502-15.346899-34.062629-34.187401-34.062629z m0 204.500548H415.131244c-18.840502 0-34.062629 15.222127-34.062629 34.062629 0 18.840502 15.222127 34.062629 34.062629 34.06263h306.688437c18.840502 0 34.062629-15.222127 34.062629-34.06263-0.124772-18.840502-15.346899-34.062629-34.187401-34.062629zM299.967116 273.249665h-25.20385c-18.840502 0-34.062629 15.222127-34.06263 34.062629 0 18.840502 15.222127 34.062629 34.06263 34.06263h25.952479c18.840502 0 34.062629-15.222127 34.06263-34.06263 0-18.840502-15.222127-34.062629-34.06263-34.062629h-0.748629z m0 204.375777h-25.20385c-18.840502 0-34.062629 15.222127-34.06263 34.062629 0 18.840502 15.222127 34.062629 34.06263 34.06263h25.952479c18.840502 0 34.062629-15.222127 34.06263-34.06263 0-18.840502-15.222127-34.062629-34.06263-34.062629h-0.748629z m0 204.500548h-25.20385c-18.840502 0-34.062629 15.222127-34.06263 34.062629 0 18.840502 15.222127 34.062629 34.06263 34.06263h25.952479c18.840502 0 34.062629-15.222127 34.06263-34.06263 0-18.840502-15.222127-34.062629-34.06263-34.062629h-0.748629z m0 0" fill="#3FAAE2" p-id="807"></path></svg>