<?xml version="1.0" standalone="no"?><!DOCTYPE svg PUBLIC "-//W3C//DTD SVG 1.1//EN" "http://www.w3.org/Graphics/SVG/1.1/DTD/svg11.dtd"><svg t="1526982985162" class="icon" style="" viewBox="0 0 1024 1024" version="1.1" xmlns="http://www.w3.org/2000/svg" p-id="1258" xmlns:xlink="http://www.w3.org/1999/xlink" width="200" height="200"><defs><style type="text/css"></style></defs><path d="M591.130558 435.037403l-91.054341-89.609033 15.898377-15.175724 91.05434 89.609034z" fill="#1296db" p-id="1259"></path><path d="M380.838391 666.286521h-90.331687c-5.781228 0-10.839802-5.058574-10.839802-10.839803V552.107269c0-2.890614 1.445307-5.781228 2.890614-7.949189l281.834862-281.834862c4.335921-4.335921 10.839802-4.335921 15.175724 0l96.835568 94.667608c2.16796 2.16796 2.890614 5.058574 3.613267 7.949188s-1.445307 5.781228-2.890614 7.949189l-288.338744 289.78405c-2.890614 2.890614-5.058574 3.613267-7.949188 3.613268z m-80.214538-21.679605h75.155964l277.498941-278.944248-81.659845-79.491885-270.99506 270.99506v87.441073zM760.231475 742.165138h-479.84192c-5.781228 0-10.839802-5.058574-10.839802-10.839803s5.058574-10.839802 10.839802-10.839802h479.84192c5.781228 0 10.839802 5.058574 10.839802 10.839802s-5.058574 10.839802-10.839802 10.839803z" fill="#1296db" p-id="1260"></path></svg>