<?xml version="1.0" standalone="no"?><!DOCTYPE svg PUBLIC "-//W3C//DTD SVG 1.1//EN" "http://www.w3.org/Graphics/SVG/1.1/DTD/svg11.dtd"><svg t="1527499323775" class="icon" style="" viewBox="0 0 1024 1024" version="1.1" xmlns="http://www.w3.org/2000/svg" p-id="3817" xmlns:xlink="http://www.w3.org/1999/xlink" width="200" height="200"><defs><style type="text/css"></style></defs><path d="M805.1712 931.5328c-7.2704 0-14.4384-1.9456-20.7872-5.5296L511.5904 770.1504 238.7968 926.0032c-13.0048 7.3728-28.9792 7.3728-41.8816-0.1024-12.9024-7.4752-20.8896-21.2992-20.8896-36.2496V134.656c0-11.1616 4.4032-21.8112 12.288-29.696 7.8848-7.8848 18.5344-12.288 29.696-12.288h587.1616c11.1616 0 21.8112 4.4032 29.696 12.288 7.8848 7.8848 12.288 18.5344 12.288 29.696v754.9952c0 11.1616-4.4032 21.8112-12.288 29.696-7.8848 7.7824-18.6368 12.1856-29.696 12.1856zM511.5904 679.936c7.2704 0 14.4384 1.9456 20.7872 5.5296l230.8096 131.8912V176.5376H259.8912v640.7168l230.8096-131.8912c6.3488-3.584 13.5168-5.4272 20.8896-5.4272z m0 0" fill="#3FAAE2" p-id="3818"></path><path d="M511.8976 491.4176c-22.6304 0-40.96-18.3296-40.96-40.96V304.4352c0-22.6304 18.3296-40.96 40.96-40.96s40.96 18.3296 40.96 40.96v146.0224c0 22.6304-18.3296 40.96-40.96 40.96zM511.8976 599.4496c-22.6304 0-40.96-18.3296-40.96-40.96s18.3296-40.96 40.96-40.96 40.96 18.3296 40.96 40.96-18.3296 40.96-40.96 40.96z" fill="#3FAAE2" p-id="3819"></path></svg>