<?xml version="1.0" standalone="no"?><!DOCTYPE svg PUBLIC "-//W3C//DTD SVG 1.1//EN" "http://www.w3.org/Graphics/SVG/1.1/DTD/svg11.dtd"><svg t="1527504054862" class="icon" style="" viewBox="0 0 1024 1024" version="1.1" xmlns="http://www.w3.org/2000/svg" p-id="5080" xmlns:xlink="http://www.w3.org/1999/xlink" width="200" height="200"><defs><style type="text/css"></style></defs><path d="M896.053979 299.491025 127.946021 299.491025c-31.907711 0-58.014298 26.106588-58.014298 58.014298l0 272.745894c0 31.907711 26.106588 58.014298 58.014298 58.014298l768.107959 0c31.907711 0 58.014298-26.106588 58.014298-58.014298L954.068278 357.505323C954.068278 325.597613 927.96169 299.491025 896.053979 299.491025zM603.729168 405.711232c11.973706 7.576559 23.462365 15.458063 34.46086 23.644513l-9.899464 11.915377c-10.631128-9.041934-21.50785-17.473977-32.628118-25.296129L603.729168 405.711232zM224.443795 572.923558c-1.774413 4.048199-4.1536 7.563256-7.136537 10.546194-2.982938 2.982938-6.499018 5.362124-10.546194 7.138584-4.048199 1.774413-8.41567 2.662643-13.103436 2.662643-4.545526 0-8.841366-0.88823-12.889565-2.662643-4.048199-1.77646-7.599072-4.155646-10.653641-7.138584-3.053546-2.982938-5.468548-6.497994-7.245008-10.546194-1.774413-4.048199-2.662643-8.41567-2.662643-13.102413 0-4.545526 0.88823-8.841366 2.662643-12.890588 1.775436-4.047176 4.191462-7.599072 7.245008-10.653641 3.053546-3.052522 6.604418-5.467525 10.653641-7.242961 4.047176-1.775436 8.344039-2.662643 12.889565-2.662643 4.687766 0 9.055237 0.88823 13.103436 2.662643 4.047176 1.775436 7.563256 4.190439 10.546194 7.242961 2.982938 3.053546 5.362124 6.605442 7.136537 10.653641 1.775436 4.049223 2.663666 8.345062 2.663666 12.890588C227.107461 564.507888 226.219231 568.875359 224.443795 572.923558zM276.110525 579.635423c-6.108115 0-11.930727-0.070608-17.470907-0.212848 0-11.647271-2.201132-22.620184-6.604418-32.917714-4.403287-10.29753-10.43977-19.281135-18.110473-26.951839-7.66968-7.670703-16.653285-13.707187-26.951839-18.110473-10.29753-4.403287-21.269419-6.604418-32.917714-6.604418l0-36.007075c16.618493 0 32.278147 3.15997 46.979988 9.480932 14.700817 6.320962 27.483958 14.94948 38.349423 25.886577 10.866489 10.937097 19.459191 23.756053 25.780153 38.45687 6.320962 14.70184 9.480932 30.361495 9.480932 46.979988L276.110525 579.635423zM346.846566 579.421552l-7.670703 0c-2.272763 0-4.367471-0.035816-6.285147-0.106424-1.917676-0.071631-4.154623-0.106424-6.711865-0.106424 0-13.919011-1.810229-27.377534-5.432733-40.374546-3.621481-12.997012-8.734942-25.104771-15.33936-36.326347-6.604418-11.220552-14.523785-21.448498-23.756053-30.680766-9.233292-9.233292-19.459191-17.116843-30.680766-23.64963-11.220552-6.53381-23.294542-11.611455-36.219923-15.232936-12.925381-3.622504-26.348088-5.433756-40.268122-5.433756l0-6.818289c0-3.408633-0.035816-6.924713-0.106424-10.546194-0.071631-3.621481-0.106424-6.924713-0.106424-9.907651l0-5.752004c17.044188 0 33.449833 2.201132 49.216935 6.604418 15.766079 4.403287 30.503734 10.617825 44.209898 18.642592 13.707187 8.025791 26.171056 17.684778 37.391608 28.976962 11.220552 11.291161 20.843724 23.790846 28.870538 37.497009 8.024767 13.707187 14.239306 28.408003 18.642592 44.103474 4.403287 15.69547 6.604418 32.066323 6.604418 49.110511L346.846566 579.421552zM649.554866 583.695902c-19.552312-6.477528-39.22742-15.947204-59.024302-28.412097-15.886829 10.447956-38.615483 20.346397-68.188009 29.695323-3.421936-4.888334-7.087419-9.4093-10.996448-13.564947 30.05962-7.822153 52.514027-16.09763 67.3622-24.836665-16.071024-13.747095-27.526937-31.068599-34.368762-51.964512-13.380752 33.483602-31.590486 60.978816-54.624085 82.484619-3.299139-4.644787-6.538927-8.79941-9.715269-12.464893 27.555589-24.867364 47.809889-60.183707 60.762899-105.948007l-50.865481 0L489.897609 444.936605c5.009084-11.607362 9.591449-23.278169 13.748119-35.010375l14.846126 4.03285c-4.27742 10.754948-8.614192 21.140483-13.013385 31.160697l38.767955 0c2.992147-12.769838 5.5279-26.700105 7.607258-41.792848l15.581883 2.016937c-2.078335 13.870916-4.615111 27.128871-7.607258 39.775912l101.273545 0 0 13.563924L556.345997 458.6837c-2.200108 8.065699-4.615111 15.82543-7.240915 23.279193l90.918709 0 0 12.648065c-8.066723 19.97903-20.621667 37.241182-37.668924 51.782364 17.168008 10.387581 37.178761 17.687848 60.031235 21.903869C656.885831 574.407352 652.608411 579.539232 649.554866 583.695902zM848.801792 442.920692 739.919966 442.920692c-6.843872 12.892635-14.328333 25.418926-22.453385 37.576827l43.35032 0 0-28.228925 14.663978 0 0 28.228925 56.639998 0 0 63.422472c0 14.420431-6.17156 21.629623-18.513656 21.629623-3.177366 0-12.280698-0.062422-27.311019-0.184195-0.733711-4.031826-1.711991-8.980535-2.932796-14.84715 12.219299 0.733711 19.551288 1.100054 21.995967 1.100054 8.18645 0.24457 12.280698-3.543709 12.280698-11.364839l0-46.558385-42.158169 0 0 90.36817-14.663978 0 0-90.36817-41.243333 0 0 76.435856-14.479783 0 0-72.311933c-8.248871 10.93812-17.047258 21.538549-26.39516 31.803333-3.055592-4.400217-6.53995-8.492418-10.44898-12.281721 22.422685-23.462365 40.753169-48.26833 54.990428-74.419943l-51.873438 0 0-13.19758 58.654888 0c4.276397-8.798387 8.125051-17.779945 11.54801-26.944676l14.480806 5.864568c-2.995217 7.148817-6.14086 14.176884-9.441023 21.080108l102.190427 0L848.800769 442.920692z" p-id="5081" fill="#3FAAE2"></path><path d="M174.268022 394.486586" p-id="5082" fill="#3FAAE2"></path><path d="M557.629223 494.611981c5.498224 16.924461 16.404622 31.496341 32.720216 43.716664 15.823384-13.07376 27.004027-27.646664 33.542954-43.716664L557.629223 494.611981z" p-id="5083" fill="#3FAAE2"></path></svg>