<?xml version="1.0" standalone="no"?><!DOCTYPE svg PUBLIC "-//W3C//DTD SVG 1.1//EN" "http://www.w3.org/Graphics/SVG/1.1/DTD/svg11.dtd"><svg t="1527575083388" class="icon" style="" viewBox="0 0 1024 1024" version="1.1" xmlns="http://www.w3.org/2000/svg" p-id="4657" xmlns:xlink="http://www.w3.org/1999/xlink" width="200" height="200"><defs><style type="text/css"></style></defs><path d="M598.9376 273.39776h216.93952a30.1056 30.1056 0 0 1 30.32064 30.2592 30.22336 30.22336 0 0 1-30.32064 30.2592H598.9376c-12.47232 35.25632-46.08512 60.52352-85.6064 60.52352-39.51616 0-73.13408-25.27232-85.6064-60.52352H210.78528a30.1056 30.1056 0 0 1-30.32064-30.2592 30.22336 30.22336 0 0 1 30.32064-30.2592H427.7248c12.47232-35.25632 46.09024-60.52352 85.6064-60.52352 39.52128 0 73.1392 25.2672 85.6064 60.52352zM669.81376 81.23904H210.51392c-16.57856 0-30.04416 13.55776-30.04416 30.26432 0 16.82432 13.4656 30.2592 30.04416 30.2592h459.30496c12.46208 35.25632 46.08 60.5184 85.60128 60.5184 50.14528 0 90.78272-40.64256 90.78272-90.7776 0-50.14528-40.64256-90.78272-90.78272-90.78272-39.5264-0.00512-73.14432 25.2672-85.6064 60.5184zM816.14848 465.55648H356.85888c-12.47232-35.26144-46.09024-60.52352-85.61152-60.52352-50.14016 0-90.7776 40.64256-90.7776 90.78272 0 50.14016 40.64256 90.78272 90.7776 90.78272 39.52128 0 73.1392-25.27232 85.61152-60.5184h459.29472c16.58368 0 30.04928-13.55776 30.04928-30.26432-0.00512-16.82432-13.4656-30.2592-30.0544-30.2592zM271.24736 526.08a30.26432 30.26432 0 0 1 0-60.52352 30.26432 30.26432 0 0 1 0 60.52352zM244.864 707.06176l15.60064 3.45088a337.92 337.92 0 0 1-15.60064 28.49792h85.04832v13.7984h-93.9008c-10.7008 15.80032-23.84896 30.44864-39.4496 43.95008-4.59776-4.50048-8.80128-8.20224-12.60032-11.10016 25.10336-19.59936 45.39904-45.7984 60.9024-78.59712z m9.74848 95.24736h15.45216v65.69984c0.30208 37.2992-3.3536 64.54784-10.95168 81.75104-6.80448 17.39776-21.69856 34.80064-44.6976 52.1984-2.60096-3.0976-6.4-6.99904-11.40224-11.6992 21.89824-15.69792 35.85024-31.25248 41.85088-46.64832 6.79936-14.80192 10.05056-39.79776 9.74848-74.99776v-66.304z m-50.9952 12.9024h15.45216v114.00192h-15.45216v-114.00192z m86.4-27.60192l-12.29824 9.74848c-6.99904-8.29952-15.8976-18.00192-26.7008-29.10208l11.10016-9.29792c8.89856 8.704 18.19648 18.2528 27.89888 28.65152z m31.34976 178.80064h-15.45216V857.9584h67.34848v-37.80096H293.76512v-13.7984h176.84992v13.7984H388.56704v37.80096h68.2496v70.94784c1.29536 22.2976-8.20224 33.44896-28.49792 33.44896-5.90336 0.19968-13.19936 0.30208-21.89824 0.30208-0.2048-0.9984-0.50176-2.65216-0.90112-4.95104-0.9984-6.00064-1.89952-9.74848-2.69824-11.24864 7.10144 0.59904 14.04928 0.90112 20.84864 0.90112 7.19872 0.1024 11.94496-1.19808 14.24896-3.90144 2.49856-2.49856 3.69664-7.64928 3.59936-15.45216v-56.24832H388.56704v128.39936h-15.29856v-128.39936H321.36704v94.65344z m48.44544-259.05152l16.34816 3.45088c-5.49888 11.49952-10.30144 20.89984-14.40256 28.20096h98.85184v13.7984H363.3664c-9.00096 14.10048-20.55168 27.84768-34.65216 41.25184-5.20192-4.50048-9.6-7.90016-13.19936-10.19904 23.90016-21.00224 41.99936-46.49984 54.2976-76.50304z m54.15424 81.44896l-12.29824 9.74848a609.63328 609.63328 0 0 0-28.20096-29.99808l11.84768-9.00096a493.02016 493.02016 0 0 1 28.65152 29.25056zM681.45664 973.76256c18.69824 0.39936 44.54912 0.65024 77.54752 0.74752 34.89792 0 62.80192-0.14848 83.70176-0.45056-3.39968 7.90016-5.3504 13.30176-5.85216 16.19968-81.39776-0.1024-135.5008-0.59904-162.29888-1.50016-31.8976 0.1024-57.05216-12.20096-75.44832-36.89984-18.49856 18.60096-30.8992 31.85152-37.20192 39.75168l-11.10016-12.9024c9.79968-10.79808 23.3984-24.15104 40.80128-40.04864v-106.50112h-36.44928v-16.0512h52.80256v121.94816c17.49504 24.50432 41.99424 36.4032 73.4976 35.70688z m-71.10144-198.75328c-8.4992-9.90208-22.5024-24.94976-41.99936-45.14816l12.60032-10.19904a1304.54528 1304.54528 0 0 1 42.5984 43.648l-13.19936 11.6992z m119.24992-64.19968h16.0512v52.80256h78.8992v14.40256h-78.8992v55.95136h93.30176v14.40256h-71.552v64.79872c-0.1024 8.29952 1.39776 13.99808 4.50048 17.1008 2.80064 3.3024 8.04864 4.89984 15.74912 4.80256h10.79808c12.29824 0.90112 19.34848-5.74976 21.15072-19.94752 1.89952-11.60192 3.1488-21.04832 3.74784-28.34944 3.39968 1.69984 8.04864 3.59936 13.952 5.69856l1.35168 0.45056a253.63456 253.63456 0 0 1-4.04992 26.99776c-3.00032 19.90144-13.30176 29.54752-30.8992 28.94848h-23.10144c-19.50208-0.1024-29.25056-11.24864-29.25056-33.44896v-67.05152h-46.64832c0.1024 2.2016 0.14848 4.80256 0.14848 7.79776 0 46.10048-19.70176 78.64832-59.10016 97.64864a94.38208 94.38208 0 0 0-11.10016-13.50144c21.4016-11.60192 35.59936-23.70048 42.5984-36.3008 7.70048-12.29824 11.648-30.848 11.84768-55.64928h-57.74848v-14.40256H729.6v-55.95136h-56.5504c-6.5024 14.8992-12.8512 27.89888-19.05152 38.99904-5.89824-3.0976-11.10016-5.55008-15.60064-7.35232 16.70144-27.49952 29.19936-56.35072 37.49888-86.54848l15.60064 4.1984c-3.0976 11.10016-7.30112 23.19872-12.60032 36.3008h50.69824V710.8096z" p-id="4658" fill="#3FAAE2"></path></svg>