<?xml version="1.0" standalone="no"?><!DOCTYPE svg PUBLIC "-//W3C//DTD SVG 1.1//EN" "http://www.w3.org/Graphics/SVG/1.1/DTD/svg11.dtd"><svg t="1527169393270" class="icon" style="" viewBox="0 0 1026 1024" version="1.1" xmlns="http://www.w3.org/2000/svg" p-id="1880" xmlns:xlink="http://www.w3.org/1999/xlink" width="200.390625" height="200"><defs><style type="text/css"></style></defs><path d="M963.087 212.044H62.417C27.946 212.044 0 239.99 0 274.462v436.632c0 34.475 27.945 62.418 62.418 62.418h900.669c34.473 0 62.415-27.944 62.415-62.418V274.462c0-34.472-27.944-62.418-62.415-62.418zM182.416 432.02h-17.589c-5.756 0-10.233-1.703-13.43-5.116-3.414-3.623-5.117-8.1-5.117-13.431 0-5.326 1.703-9.699 5.116-13.112 3.198-3.407 7.675-5.116 13.431-5.116h17.589V355.91c0-6.18 1.703-11.193 5.116-15.03 3.408-3.408 7.78-5.222 13.112-5.437 5.326 0.215 9.699 1.919 13.111 5.116 3.623 3.838 5.437 8.954 5.437 15.35v39.334h18.548c5.54 0 9.913 1.6 13.111 4.797 3.408 3.628 5.117 8.105 5.117 13.431 0 5.331-1.71 9.703-5.117 13.112-3.413 3.627-7.784 5.436-13.111 5.436h-18.548v48.928c4.477-4.262 10.018-5.647 16.629-4.158 4.477 1.07 8.1 3.837 10.873 8.314 2.768 4.907 3.837 9.703 3.197 14.391-0.215 4.267-3.307 8.105-9.274 11.512-5.756 3.413-12.9 7.036-21.426 10.873v83.783c0 16.415-6.396 28.78-19.187 37.095-7.25 4.263-16.31 5.966-27.182 5.117-14.285-0.214-23.664-3.519-28.14-9.914-2.35-4.267-3.093-8.954-2.24-14.07 2.768-11.727 10.554-16.31 23.345-13.752 2.983 0.21 4.901 0.21 5.756 0 2.768 0.64 5.116 0 7.035-1.919 2.768-2.772 4.047-6.825 3.838-12.151v-59.48a1568.64 1568.64 0 0 1-15.99 5.437c-5.546 1.709-10.342 1.495-14.39-0.64-4.268-2.128-7.145-5.86-8.635-11.193-1.494-4.901-1.28-9.593 0.64-14.07 2.128-4.477 5.861-7.46 11.192-8.954 7.885-2.768 16.95-6.076 27.183-9.914V432.02z m102.33 177.8c-10.448 23.874-20.147 36.562-29.1 38.055-4.268 0.21-8.745-1.07-13.431-3.838-4.907-3.412-7.785-7.465-8.635-12.152-0.855-4.906 0.32-9.703 3.518-14.39 14.07-20.466 23.024-42.212 26.862-65.236 1.064-15.56 3.518-24.943 7.355-28.141 3.838-2.768 8.42-4.047 13.751-3.837 4.902 0.64 9.06 2.667 12.473 6.076 4.262 4.692 4.686 16.948 1.279 36.775 0.64 0.215 1.064 0.749 1.279 1.599 0.21 1.07 0.64 2.028 1.279 2.879 7.885 16.628 18.972 28.46 33.257 35.496v-89.859h-63.638c-5.546 0-9.914-1.599-13.112-4.797-3.197-3.407-4.797-7.78-4.797-13.111 0-4.902 1.6-9.06 4.797-12.473 3.408-3.407 7.78-5.116 13.112-5.116h161.17c5.327 0.215 9.594 1.709 12.792 4.477 3.198 3.413 4.796 7.784 4.796 13.112 0 4.906-1.6 9.063-4.796 12.472-3.198 3.627-7.465 5.436-12.791 5.436h-60.76v28.46h49.248c5.326 0.216 9.593 1.71 12.79 4.478 3.199 3.413 4.798 7.784 4.798 13.111 0 4.907-1.6 9.064-4.797 12.472-3.198 3.628-7.465 5.437-12.791 5.437h-49.247v31.02H433.444c6.182 0.21 11.194 2.025 15.03 5.436 3.624 3.198 5.542 7.675 5.756 13.431-0.214 5.542-1.918 10.02-5.116 13.431-4.052 3.838-9.273 5.756-15.67 5.756h-44.13c-16.203-0.214-31.447-1.388-45.729-3.518-23.023-3.202-42.64-14.184-58.839-32.941z m10.873-142.623c-7.25-0.21-12.901-2.879-16.95-7.996-5.116-6.605-7.569-13.536-7.355-20.786V371.58c0-6.606 2.344-12.257 7.035-16.95 4.902-5.116 10.658-7.564 17.269-7.355H408.82c8.314-0.21 15.35 2.24 21.106 7.356 4.686 4.267 7.14 9.914 7.355 16.949v66.835c0 7.465-2.988 14.18-8.954 20.147-5.756 5.546-12.26 8.424-19.507 8.635H295.619z m106.168-73.87v-3.837c0-1.704-0.64-3.198-1.919-4.477-1.709-1.49-3.307-2.24-4.797-2.24h-81.545c-1.92-0.209-3.518 0.43-4.798 1.92-1.279 1.708-1.918 3.307-1.918 4.797v3.837h94.977z m-94.976 27.82v3.838c0 1.71 0.64 3.308 1.918 4.797 1.28 1.28 2.879 1.92 4.798 1.92h81.545c1.919 0 3.518-0.746 4.797-2.24 1.064-1.489 1.704-2.983 1.919-4.477v-3.837H306.81z m292.921 107.768c-4.907-1.279-8.744-4.157-11.512-8.634-2.772-5.117-3.518-9.914-2.24-14.391 1.28-5.117 4.584-9.379 9.915-12.792 32.618-21.53 57.56-47.967 74.829-79.306 1.065-1.918 2.344-3.518 3.837-4.797H604.85c-5.756 0-10.233-1.704-13.431-5.117-3.412-3.622-5.117-8.099-5.117-13.43 0-5.327 1.705-9.7 5.117-13.112 3.198-3.408 7.675-5.117 13.43-5.117H722.21c-2.988-13.855-3.519-23.024-1.6-27.5 2.558-4.263 6.502-7.142 11.833-8.636 5.326-1.703 10.233-1.279 14.71 1.28 7.035 4.052 11.618 15.67 13.75 34.856h111.285c5.543 0 9.914 1.6 13.112 4.798 3.408 3.627 5.117 8.104 5.117 13.43 0 5.332-1.71 9.704-5.117 13.112-3.412 3.628-7.784 5.437-13.112 5.437h-72.27c1.918 1.07 3.837 2.349 5.756 3.837 24.513 21.536 50.311 50.846 77.387 87.941 3.624 5.117 5.117 10.024 4.477 14.71-0.64 5.117-3.198 9.384-7.675 12.792-4.477 2.987-9.063 4.052-13.751 3.197-4.907-0.849-9.274-3.941-13.112-9.273-10.023-13.43-19.507-25.367-28.46-35.815-14.501 34.111-33.579 62.357-57.243 84.742 27.502 17.484 62.038 30.699 103.61 39.653 6.606 1.705 11.299 4.583 14.07 8.634 2.559 4.263 3.408 9.06 2.559 14.391-1.709 5.756-4.587 9.7-8.635 11.833-4.69 2.984-10.023 3.837-15.989 2.558-48.397-10.447-90.179-28.461-125.355-54.044-33.471 22.595-74.51 40.079-123.117 52.444-6.186 1.705-11.512 1.17-15.99-1.599-4.476-2.348-7.464-6.186-8.953-11.512-1.07-5.546-0.533-10.343 1.6-14.39 2.767-4.692 12.151-9.064 28.14-13.113 37.095-10.446 67.155-22.489 90.18-36.136-10.873-11.296-20.897-24.727-30.06-40.292-8.315-13.216-15.35-26.327-21.106-39.333-28.14 27.716-47.646 40.612-58.519 38.694z m111.604-12.791c8.524 12.367 17.375 23.024 26.542 31.978 27.502-24.728 47.328-55.427 59.48-92.097-5.546-5.756-10.873-10.873-15.989-15.35-4.69-4.047-7.356-8.635-7.995-13.751 0-4.902 1.705-9.379 5.116-13.431 1.49-2.128 3.198-3.623 5.117-4.477h-83.144c2.559 2.134 4.263 4.907 5.117 8.314 1.065 5.332 0 10.663-3.198 15.99-5.97 8.953-11.832 17.377-17.589 25.263 8.526 24.733 17.375 43.92 26.543 57.56z" fill="#3FAAE2" p-id="1881"></path></svg>