<?xml version="1.0" standalone="no"?><!DOCTYPE svg PUBLIC "-//W3C//DTD SVG 1.1//EN" "http://www.w3.org/Graphics/SVG/1.1/DTD/svg11.dtd"><svg t="1527001097169" class="icon" style="" viewBox="0 0 1024 1024" version="1.1" xmlns="http://www.w3.org/2000/svg" p-id="1584" xmlns:xlink="http://www.w3.org/1999/xlink" width="200" height="200"><defs><style type="text/css"></style></defs><path d="M614.876794 8.441764C252.077632-55.207212-53.437452 250.307872 10.211523 613.107035c38.189386 197.311825 197.311825 362.799163 400.988548 400.988548 356.434265 70.013873 668.314247-241.866108 598.300373-598.300373C977.675957 212.118487 812.18862 46.631149 614.876794 8.441764zM341.186198 740.404986 169.333963 536.728264C150.23927 511.268673 156.604168 473.079288 182.063758 453.984595l0 0c25.45959-19.094693 63.648976-19.094693 82.743669 6.364898L353.915993 574.917649c19.094693 25.45959 57.284078 31.824488 82.743669 6.364898L767.634337 307.59195c25.45959-19.094693 63.648976-19.094693 82.743669 6.364898l0 0c19.094693 25.45959 19.094693 63.648976-6.364898 82.743669l-413.718343 350.069367C398.470276 772.229474 360.280891 765.864577 341.186198 740.404986z" p-id="1585" fill="#3FAAE2"></path></svg>